<?xml version="1.0" standalone="no"?>
<!DOCTYPE svg PUBLIC "-//W3C//DTD SVG 20010904//EN"
 "http://www.w3.org/TR/2001/REC-SVG-20010904/DTD/svg10.dtd">
<svg version="1.0" xmlns="http://www.w3.org/2000/svg"
 width="889.000000pt" height="889.000000pt" viewBox="0 0 889.000000 889.000000"
 preserveAspectRatio="xMidYMid meet">

<g transform="translate(0.000000,889.000000) scale(0.100000,-0.100000)"
fill="#000000" stroke="none">
<path d="M5108 5598 l-228 -102 0 -747 0 -747 224 106 224 105 5 226 c2 124 6
447 9 716 3 270 9 502 13 518 5 20 4 27 -6 27 -8 0 -116 -46 -241 -102z"/>
<path d="M1528 5504 c-5 -4 -8 -341 -8 -750 l0 -742 39 -4 c21 -2 126 -3 232
-3 l194 0 3 748 c1 411 1 747 0 747 -67 6 -455 10 -460 4z"/>
<path d="M2645 5502 c-3 -3 -5 -340 -5 -749 0 -587 3 -743 13 -745 6 -1 112
-2 234 -2 l223 -1 0 751 0 751 -230 0 c-126 0 -232 -2 -235 -5z"/>
<path d="M3951 5503 l-193 -3 6 -23 c3 -12 6 -349 6 -748 l0 -726 230 -1 230
0 0 744 c0 409 1 747 3 752 2 8 -26 9 -282 5z"/>
<path d="M6000 4762 l0 -749 122 -6 c152 -9 252 -9 302 0 l38 6 -4 746 -4 746
-227 3 -227 3 0 -749z"/>
<path d="M7158 5503 l-48 -4 0 -745 c0 -588 3 -744 13 -745 49 -4 389 -5 420
-1 l37 5 -2 746 -3 746 -185 1 c-102 0 -206 -1 -232 -3z"/>
<path d="M3346 3558 c-3 -13 -6 -99 -6 -191 l0 -168 26 3 26 3 -1 179 c-1 99
-4 183 -7 188 -10 16 -32 8 -38 -14z"/>
<path d="M3796 3565 c-30 -23 -56 -67 -56 -97 0 -39 44 -75 121 -98 80 -24
107 -49 93 -88 -7 -20 -21 -31 -53 -41 -52 -16 -86 -5 -103 36 -14 33 -38 63
-50 63 -14 0 -9 -75 8 -99 50 -70 194 -65 238 9 20 35 20 63 1 100 -18 35 -34
44 -119 70 -76 24 -93 40 -80 77 6 19 20 29 43 36 43 11 80 -4 106 -43 25 -38
45 -39 45 -2 0 30 -24 64 -57 81 -31 16 -114 13 -137 -4z"/>
<path d="M6720 3560 c-10 -19 -14 -352 -4 -362 3 -3 14 -4 24 -1 18 5 20 17
22 142 l3 136 90 -137 c50 -76 96 -140 104 -143 35 -14 41 13 41 180 0 90 -3
170 -6 179 -3 9 -15 16 -25 16 -17 0 -19 -11 -21 -142 l-3 -143 -88 142 c-89
142 -117 169 -137 133z"/>
<path d="M7401 3555 c-16 -14 -35 -42 -41 -61 -11 -32 -10 -40 7 -63 11 -14
42 -34 69 -45 116 -44 134 -55 134 -81 0 -14 -9 -34 -20 -45 -47 -47 -110 -31
-148 38 -13 23 -27 42 -32 42 -5 0 -11 -14 -15 -31 -10 -43 10 -75 62 -100 83
-40 179 -9 197 65 19 73 -26 124 -131 147 -64 15 -92 44 -73 78 14 27 41 41
79 41 25 0 36 -8 57 -40 39 -58 78 -49 55 13 -25 66 -142 90 -200 42z"/>
<path d="M1470 3385 l0 -185 25 0 c24 0 25 2 25 75 l0 75 53 0 c72 0 122 16
147 47 38 48 19 137 -35 161 -14 7 -68 12 -120 12 l-95 0 0 -185z m200 125
c11 -11 20 -33 20 -50 0 -23 -7 -33 -31 -46 -42 -21 -117 -24 -129 -4 -11 17
-13 103 -3 113 3 4 33 7 65 7 45 0 63 -5 78 -20z"/>
<path d="M2097 3563 c-4 -3 -7 -86 -7 -184 0 -152 2 -178 16 -183 28 -11 34 4
34 84 0 87 5 93 65 83 31 -5 42 -16 92 -89 31 -46 62 -84 69 -84 36 0 23 45
-36 126 l-41 55 31 11 c58 20 69 110 21 159 -29 28 -32 29 -134 29 -57 0 -107
-3 -110 -7z m201 -49 c27 -19 29 -64 4 -87 -21 -20 -99 -32 -136 -23 -24 6
-26 11 -26 60 0 29 3 56 7 59 13 14 128 7 151 -9z"/>
<path d="M2811 3532 c-24 -47 -131 -317 -131 -330 0 -5 11 -7 24 -5 18 4 29
18 44 56 l19 52 83 0 c92 0 86 4 104 -77 5 -21 12 -28 31 -28 16 0 25 6 25 16
0 14 -110 297 -131 336 -16 31 -47 22 -68 -20z m74 -102 c14 -35 22 -66 19
-69 -8 -8 -114 -11 -114 -3 0 11 39 133 46 144 10 15 22 -2 49 -72z"/>
<path d="M4360 3385 l0 -185 130 0 c123 0 130 1 130 20 0 19 -7 20 -105 20
l-106 0 3 68 3 67 95 5 c76 4 95 8 95 20 0 12 -17 15 -95 15 l-95 0 0 55 0 55
98 3 c89 2 97 4 97 22 0 19 -7 20 -125 20 l-125 0 0 -185z"/>
<path d="M5087 3564 c-4 -4 -7 -78 -7 -165 l0 -159 -25 -6 c-36 -9 -47 -2 -60
37 -15 44 -39 45 -43 2 -7 -76 92 -112 153 -55 l30 28 -1 160 c-1 149 -2 159
-20 162 -11 2 -23 0 -27 -4z"/>
<path d="M5485 3548 c-3 -13 -4 -95 -3 -183 l3 -160 133 -3 c126 -2 132 -2
132 17 0 19 -8 21 -107 23 l-108 3 -3 41 c-2 22 2 52 7 67 10 27 12 27 106 27
78 0 95 3 95 15 0 12 -18 15 -100 15 -114 0 -117 2 -106 75 l7 45 100 0 c92 0
99 1 99 20 0 19 -7 20 -125 20 -121 0 -125 -1 -130 -22z"/>
<path d="M6208 3558 c-9 -7 -38 -67 -64 -133 -25 -66 -57 -144 -70 -172 l-23
-53 22 0 c33 0 42 10 59 60 l15 45 81 3 81 3 10 -38 c6 -21 11 -43 11 -50 0
-11 57 -29 66 -21 2 3 -7 31 -21 64 -13 32 -41 102 -61 154 -59 155 -68 167
-106 138z m62 -126 c11 -36 19 -66 18 -67 -8 -6 -118 -11 -118 -5 0 6 28 92
45 137 10 28 36 -3 55 -65z"/>
</g>
</svg>
